<svg id="Calque_1" data-name="Calque 1" xmlns="http://www.w3.org/2000/svg" xmlns:xlink="http://www.w3.org/1999/xlink" viewBox="0 0 62.84 90.06"><defs><style>.cls-1{fill:url(#Dégradé_sans_nom_11);}.cls-2{fill:url(#Dégradé_sans_nom_11-2);}.cls-3{fill:url(#Dégradé_sans_nom_11-3);}.cls-4{fill:url(#Dégradé_sans_nom_11-4);}</style><linearGradient id="Dégradé_sans_nom_11" y1="34.97" x2="62.84" y2="34.97" gradientUnits="userSpaceOnUse"><stop offset="0" stop-color="#00bae7"/><stop offset="1" stop-color="#8dc63f"/></linearGradient><linearGradient id="Dégradé_sans_nom_11-2" x1="0.21" y1="74.74" x2="13.96" y2="74.74" xlink:href="#Dégradé_sans_nom_11"/><linearGradient id="Dégradé_sans_nom_11-3" x1="48.89" y1="74.74" x2="62.64" y2="74.74" xlink:href="#Dégradé_sans_nom_11"/><linearGradient id="Dégradé_sans_nom_11-4" x1="30.11" y1="80.82" x2="32.73" y2="80.82" xlink:href="#Dégradé_sans_nom_11"/></defs><title>board</title><path class="cls-1" d="M61.53,13.68a1.31,1.31,0,0,0,1.31-1.31V6.55a1.31,1.31,0,0,0-1.31-1.31H32.73V1.31a1.31,1.31,0,0,0-2.62,0h0V5.24H1.31A1.31,1.31,0,0,0,0,6.55v5.82a1.31,1.31,0,0,0,1.31,1.31H2.59V49.81H1.31A1.31,1.31,0,0,0,0,51.12v4.37A1.31,1.31,0,0,0,1.31,56.8H30.13a1.19,1.19,0,0,0,0,.16v5.4a3.9,3.9,0,1,0,2.62,0V57a1.19,1.19,0,0,0,0-.16H61.53a1.31,1.31,0,0,0,1.31-1.31V51.12a1.31,1.31,0,0,0-1.31-1.31H60.25V13.68h1.28ZM31.42,67.28A1.28,1.28,0,1,1,32.7,66,1.28,1.28,0,0,1,31.42,67.28Zm28.8-13.11H2.62V52.43h57.6v1.74Zm-55-4.38V13.68H57.63V49.79H5.21Zm55-38.73H2.62V7.86h57.6v3.2Z" transform="translate(0 0)"/><path class="cls-2" d="M13.16,59.53l0,0a1.31,1.31,0,0,0-1.7.73l-11.11,28a1.32,1.32,0,1,0,2.44,1l11.11-28A1.31,1.31,0,0,0,13.16,59.53Z" transform="translate(0 0)"/><path class="cls-3" d="M51.42,60.24a1.31,1.31,0,1,0-2.43,1l11.11,28a1.32,1.32,0,1,0,2.44-1Z" transform="translate(0 0)"/><path class="cls-4" d="M31.46,71.65h0A1.31,1.31,0,0,0,30.11,73V88.69a1.31,1.31,0,0,0,2.62,0V73A1.31,1.31,0,0,0,31.46,71.65Z" transform="translate(0 0)"/></svg>
