<svg id="Calque_1" data-name="Calque 1" xmlns="http://www.w3.org/2000/svg" xmlns:xlink="http://www.w3.org/1999/xlink" viewBox="0 0 42.69 47.68"><defs><style>.cls-1{fill:url(#Dégradé_sans_nom_11);}</style><linearGradient id="Dégradé_sans_nom_11" y1="23.83" x2="42.68" y2="23.83" gradientUnits="userSpaceOnUse"><stop offset="0" stop-color="#00bae7"/><stop offset="1" stop-color="#8dc63f"/></linearGradient></defs><title>consultant</title><path class="cls-1" d="M28.07,25.88a0.83,0.83,0,0,0-.58.27h0a9.62,9.62,0,0,1-12.33,0h0a0.84,0.84,0,0,0-.58-0.27C10,25.88,6.49,27.34,4,30.23-1.25,36.32.15,46.51,0.21,46.93a0.86,0.86,0,0,0,.86.74H41.64a0.86,0.86,0,0,0,.83-0.74c0.06-.43,1.47-10.62-3.81-16.71C36.19,27.34,32.63,25.88,28.07,25.88ZM21.3,30.09a11.27,11.27,0,0,0,4.68-1l-4.68,9.7-4.68-9.7a11.27,11.27,0,0,0,4.71,1h0ZM40.86,45.93H1.8c-0.21-2.39-.5-10,3.49-14.6a11.49,11.49,0,0,1,8.78-3.73l6.49,13.53a0.9,0.9,0,0,0,1.56,0L28.65,27.6a11.49,11.49,0,0,1,8.74,3.74C41.37,35.93,41.07,43.55,40.86,45.93Zm-19.53-23A11.47,11.47,0,1,0,9.86,11.46h0A11.48,11.48,0,0,0,21.33,22.93h0Zm0-21.21a9.74,9.74,0,1,1-9.74,9.74h0a9.75,9.75,0,0,1,9.74-9.73h0Z" transform="translate(0 0.01)"/></svg>
