<svg id="Calque_1" data-name="Calque 1" xmlns="http://www.w3.org/2000/svg" xmlns:xlink="http://www.w3.org/1999/xlink" viewBox="0 0 83.64 64.38"><defs><style>.cls-1{fill:url(#Dégradé_sans_nom_11);}</style><linearGradient id="Dégradé_sans_nom_11" x1="0.09" y1="32.03" x2="83.73" y2="32.03" gradientUnits="userSpaceOnUse"><stop offset="0" stop-color="#00bae7"/><stop offset="1" stop-color="#8dc63f"/></linearGradient></defs><title>handshake</title><path class="cls-1" d="M82.4,33.69a13.25,13.25,0,0,0-4.76.48,9.82,9.82,0,0,0,.25-1.34,1.51,1.51,0,0,0-3-.36,8.75,8.75,0,0,1-1.44,3.64c-4.64-2.77-13.13-9.94-13.94-10.63-0.89-.94-9.55-9.81-19.16-9.81a17.13,17.13,0,0,0-6.9,1.68V17.09a1.5,1.5,0,0,0-1.5-1.49h0a1.5,1.5,0,0,0-1.48,1.51,6.65,6.65,0,0,1-.7,2.71h0a12,12,0,0,1-10.15,6.8,8.3,8.3,0,0,1-4.83-.91,1.13,1.13,0,0,1-.73-0.82c-0.17-1.11,1.45-3.36,3.14-5.78a63.68,63.68,0,0,0,4.47-7c1.08-2.2,2.18-3.43,3.59-4C32.61,5.26,38.93,2.9,41.71,2.9a40.44,40.44,0,0,1,6,.92C50.5,4.37,54,5,57.63,5.43c6.32,0.66,13.29,4.33,14.63,11a1.5,1.5,0,1,0,3-.5l0-.09a14.27,14.27,0,0,0-2.94-6.22,23.37,23.37,0,0,0,6.33-1.75,1.5,1.5,0,0,0-1.23-2.73A21.91,21.91,0,0,1,69.5,6.85H69.43A23.06,23.06,0,0,0,58,2.41c-3.52-.37-6.78-1-9.66-1.57a40.33,40.33,0,0,0-6.59-1,19,19,0,0,0-4.87.88A43.37,43.37,0,0,1,30,.35a21.3,21.3,0,0,0-9.31.49A61.69,61.69,0,0,0,14.19,3c-3.34,1.29-5.35,2.07-8.9,1.38a1.5,1.5,0,1,0-.57,3,15.79,15.79,0,0,0,3,.31,19.87,19.87,0,0,0,7.52-1.83,59,59,0,0,1,6.22-2.11,17.86,17.86,0,0,1,7.81-.45q-2.4.9-5.13,2C21.37,6.38,19.9,8.78,19,10.71a61.21,61.21,0,0,1-4.24,6.59c-2.21,3.12-4,5.58-3.68,7.87a4.1,4.1,0,0,0,2.15,3,11.08,11.08,0,0,0,6.58,1.34,14.81,14.81,0,0,0,12.52-8,15.5,15.5,0,0,1,8.06-2.78c8.64,0,16.94,8.83,17,8.92l0.13,0.12c0.47,0.36,11,9.36,15.64,11.65A1.84,1.84,0,0,1,74,40.56a3.77,3.77,0,0,1-.48,2.72,5,5,0,0,1-3.86,1.94c-2-.3-7.94-1.23-15.85-7.94a1.5,1.5,0,1,0-2,2.29C59.4,45.94,65.41,47.5,68.27,48a4,4,0,0,1-.89,1.84A4.78,4.78,0,0,1,64,51.45c-2.21.14-10.09-1.77-14.79-5.94a1.5,1.5,0,1,0-2,2.24C51,51.1,56.51,53.17,60.44,54a4.21,4.21,0,0,1-2.51,1.75c-4,1.06-10.13-2-11.83-3.18A5.27,5.27,0,0,0,43.63,49a6.42,6.42,0,0,0-4.5-.64A6.44,6.44,0,0,0,36.6,45a7.55,7.55,0,0,0-5.21-1.21,6.48,6.48,0,0,0-6.15-3.88H24.89a8.9,8.9,0,0,0-4,1.46,5.11,5.11,0,0,0-.22-0.81A6.19,6.19,0,0,0,17.18,37c-2.6-1-6.1-.23-8.67,1.9a19.26,19.26,0,0,0-6.62-3.69,1.5,1.5,0,0,0-.81,2.88,16.31,16.31,0,0,1,5.47,3.1,5.75,5.75,0,0,0-.66,3.56,6.68,6.68,0,0,0,4,4.94,6.89,6.89,0,0,0,2.91.67,6,6,0,0,0,1-.09,7.26,7.26,0,0,0,.32,1.46c0.84,2.63,3.56,4.39,5.62,5.09a7.21,7.21,0,0,0,2.31.43,5.37,5.37,0,0,0,.73-0.07,7.74,7.74,0,0,0,5.67,4.64,6.62,6.62,0,0,0,1.62.19,7,7,0,0,0,2.82-.57,7.93,7.93,0,0,0,5.52,2.76A5.39,5.39,0,0,0,40.1,64a7.07,7.07,0,0,0,3.13-2.31,11.77,11.77,0,0,0,4.66,1.65,11,11,0,0,0,1.11.06A7.54,7.54,0,0,0,56,59h0.1a10.07,10.07,0,0,0,2.56-.31,7.3,7.3,0,0,0,4.92-4.22h0.58a7.75,7.75,0,0,0,5.44-2.63A6.92,6.92,0,0,0,71.27,48a7.52,7.52,0,0,0,4.83-3.26,6.77,6.77,0,0,0,.77-5,4.82,4.82,0,0,0-.8-1.63,9.42,9.42,0,0,1,6.05-1.45,1.52,1.52,0,0,0,1.61-1.38A1.5,1.5,0,0,0,82.4,33.69ZM11.22,47a3.76,3.76,0,0,1-2.33-2.68,3.29,3.29,0,0,1,1.24-2.89,6.13,6.13,0,0,1,5.92-1.62,3.19,3.19,0,0,1,1.76,1.75A3.09,3.09,0,0,1,17.48,44,30.4,30.4,0,0,0,15,46.64,3.61,3.61,0,0,1,11.22,47Zm9.55,7c-1.51-.51-3.28-1.77-3.73-3.16a2.08,2.08,0,0,1,0-2c0.93-1.27,5.13-5.82,8-6h0.2c1.27,0,3.26.68,3.5,2.56,0.37,2.87-2.25,6.1-4.61,8a3.14,3.14,0,0,1-2,.85A4.23,4.23,0,0,1,20.76,54h0Zm8.48,4.93A4.83,4.83,0,0,1,25.6,56c0.14-.1.28-0.18,0.42-0.29,1.34-1.07,5.33-4.62,5.73-9a4.52,4.52,0,0,1,3.16.71,3.15,3.15,0,0,1,1.41,2c0.3,2.5-2,7.09-3.49,8.54a3.94,3.94,0,0,1-3.59.94v0Zm9.92,2.19c-1.52.5-3-.63-3.84-1.42a18.78,18.78,0,0,0,3.88-8.31,3.81,3.81,0,0,1,2.9.17,2.3,2.3,0,0,1,1.09,1.73C43.52,55.74,41.41,60.36,39.17,61.11Zm9.07-.79a8.73,8.73,0,0,1-3.35-1.21A14.57,14.57,0,0,0,46,56a26.69,26.69,0,0,0,6.81,2.61,4.62,4.62,0,0,1-4.55,1.73h0Z" transform="translate(-0.09 0.16)"/></svg>
