<svg id="Calque_1" data-name="Calque 1" xmlns="http://www.w3.org/2000/svg" viewBox="0 0 208.69 68.1"><defs><style>.cls-1{fill:#8dc63f;}.cls-2{fill:#fff;}.cls-3{fill:#f16a09;}.cls-4{fill:none;stroke:#8dc63f;stroke-miterlimit:10;}</style></defs><title>logo_actolis2</title><path class="cls-1" d="M181.7,280.2l0.3-.3Z" transform="translate(-171.9 -264.7)"/><path class="cls-1" d="M182.8,279.1l0.1-.1C182.8,279,182.8,279,182.8,279.1Z" transform="translate(-171.9 -264.7)"/><path class="cls-1" d="M180.7,281.4a2.18,2.18,0,0,1,.4-0.5A2.18,2.18,0,0,0,180.7,281.4Z" transform="translate(-171.9 -264.7)"/><path class="cls-1" d="M231.3,299a28.23,28.23,0,0,0-40.9-25.3l0.4-.2,3.5,8.1-13.8.3A28.33,28.33,0,0,0,203,327.4a27.89,27.89,0,0,0,13.5-3.4l-3.7-8.8h13.5A29.26,29.26,0,0,0,231.3,299Z" transform="translate(-171.9 -264.7)"/><path class="cls-2" d="M181.1,280.9c0.2-.2.4-0.5,0.6-0.7A4.35,4.35,0,0,0,181.1,280.9Z" transform="translate(-171.9 -264.7)"/><path class="cls-2" d="M182,279.9a6,6,0,0,1,.8-0.8A3,3,0,0,0,182,279.9Z" transform="translate(-171.9 -264.7)"/><path class="cls-2" d="M180.3,281.8h0c0.1-.1.2-0.3,0.3-0.4A0.54,0.54,0,0,1,180.3,281.8Z" transform="translate(-171.9 -264.7)"/><path class="cls-2" d="M182.9,278.9a28.45,28.45,0,0,1,7.4-5.3A26.54,26.54,0,0,0,182.9,278.9Z" transform="translate(-171.9 -264.7)"/><path class="cls-2" d="M216.5,323.9h0a28.55,28.55,0,0,0,9.8-8.8h0A28.47,28.47,0,0,1,216.5,323.9Z" transform="translate(-171.9 -264.7)"/><ellipse class="cls-3" cx="30.6" cy="18.2" rx="3.9" ry="6.8"/><path class="cls-2" d="M183.9,292.6h0.4c18.5,2.3,37.3,0,37.3,0,5.5,0,5.5,6,0,6l-12.5-.8a2.77,2.77,0,0,0-3.1,3l1.2,8c0,0.1,0,0,1,8.2,0,10-10.3,10-10.3,0,0.6-8.1.6-8,.6-8.1l0.8-8.1a2.81,2.81,0,0,0-3-2.9l-12.3.7C178.5,298.6,178.5,292.6,183.9,292.6Z" transform="translate(-171.9 -264.7)"/><circle class="cls-4" cx="31" cy="34.3" r="30.5"/><path class="cls-1" d="M188.8,271.9c-7.8,3-12.4,11.9-12.4,11.9l6.3-19.1Z" transform="translate(-171.9 -264.7)"/><path class="cls-1" d="M218.3,325.3c7.8-3,11.8-12.4,11.8-12.4l-5.4,19.9Z" transform="translate(-171.9 -264.7)"/><path class="cls-3" d="M249.49,294.11c0.28-2.68,4.51-3.51,8.64-3.51,3.66,0,8.07.47,8.07,3V299a3.4,3.4,0,0,0,.64,2.34h-5.12a2.77,2.77,0,0,1-.36-1,12.58,12.58,0,0,1-6.19,1.3c-3.52,0-6.26-1-6.26-3.15,0.07-4.77,12.44-2.21,12.23-4.57,0-1.22-1.49-1.42-3.27-1.42-2,0-3.16.45-3.34,1.58h-5Zm11.66,2.13c-0.85.43-2.63,0.45-4.19,0.61s-3,.49-3,1.54,1.46,1.34,3.09,1.34c3.95,0,4.09-1.77,4.09-2.42v-1.08Z" transform="translate(-171.9 -264.7)"/><path class="cls-3" d="M286.19,294.57c-0.32-1.2-1.56-1.81-3.73-1.81-3.24,0-4.3,1.87-4.3,3.41s1,3.31,4.19,3.31c2.38,0,3.7-.83,4-2.13h4.87c-0.68,2.78-4,4.3-8.85,4.3-5.55,0-9.28-2.23-9.28-5.38s3.41-5.69,9.39-5.69c4.34,0,8.35,1.3,8.64,4h-4.94Z" transform="translate(-171.9 -264.7)"/><path class="cls-3" d="M304,290.88h3.7v1.93H304V298c0,1,.43,1.22,2.13,1.22a12.26,12.26,0,0,0,1.56-.08v2.25c-0.85.08-2,.1-3,0.1-3.13,0-5.79-.39-5.79-2.5v-6.19h-3.06v-1.93H299v-3.15h5v3.15Z" transform="translate(-171.9 -264.7)"/><path class="cls-3" d="M322.63,290.59c5.79,0,9.53,2.19,9.53,5.54s-3.73,5.52-9.53,5.52-9.49-2.19-9.49-5.52S316.87,290.59,322.63,290.59Zm0,8.89c3.45,0,4.48-1.67,4.48-3.35s-1-3.37-4.48-3.37-4.44,1.69-4.44,3.37S319.22,299.49,322.63,299.49Z" transform="translate(-171.9 -264.7)"/><path class="cls-3" d="M339.13,286.88h5v14.5h-5v-14.5Z" transform="translate(-171.9 -264.7)"/><path class="cls-3" d="M356.91,289.25h-5v-2.38h5v2.38Zm-5,1.62h5v10.5h-5v-10.5Z" transform="translate(-171.9 -264.7)"/><path class="cls-3" d="M368.36,298c0,1.24,1.92,1.77,3.87,1.77,1.42,0,3.31-.32,3.31-1.34s-2.13-1.2-5.72-1.62c-3-.39-5.83-0.93-5.83-2.8,0-2.68,4.05-3.37,8-3.37s7.71,0.77,8.11,3.35h-4.8c-0.14-1.12-1.64-1.42-3.45-1.42-1.14,0-2.81.1-2.81,1,0,1,2.88,1.18,5.72,1.56s5.83,1,5.83,2.94c0,2.76-4.23,3.66-8.39,3.66s-8.46-.91-8.64-3.7h4.8Z" transform="translate(-171.9 -264.7)"/><path class="cls-3" d="M254.46,310.48h0.44l-0.8,3.87h2.72l-0.08.41h-3.16Z" transform="translate(-171.9 -264.7)"/><path class="cls-3" d="M260.55,313.77a2,2,0,0,1-1.91,1.09,1.25,1.25,0,0,1-1.35-1.66,2,2,0,0,1,2-1.65,1.29,1.29,0,0,1,1.39,1.76h-3a0.92,0.92,0,0,0,1,1.18,1.37,1.37,0,0,0,1.39-.72h0.44Zm-0.2-.79a0.94,0.94,0,0,0-1.06-1.06,1.54,1.54,0,0,0-1.51,1.06h2.57Z" transform="translate(-171.9 -264.7)"/><path class="cls-3" d="M263.28,311.65h0.44l-0.13.62h0a1.6,1.6,0,0,1,1.42-.72,1.25,1.25,0,0,1,1.36,1.65,2,2,0,0,1-2,1.66,1.1,1.1,0,0,1-1.12-.72h0L262.82,316h-0.44Zm1.13,2.84a1.57,1.57,0,0,0,1.52-1.28,1,1,0,0,0-1-1.28,1.56,1.56,0,0,0-1.57,1.28A1,1,0,0,0,264.41,314.49Z" transform="translate(-171.9 -264.7)"/><path class="cls-3" d="M267.05,312.61a1.5,1.5,0,0,1,1.71-1.05c1,0,1.37.32,1.24,0.92l-0.34,1.63c-0.05.26,0,.35,0.17,0.35h0.24l-0.07.3a1.9,1.9,0,0,1-.38,0c-0.44,0-.41-0.31-0.37-0.55h0a1.88,1.88,0,0,1-1.59.62,0.83,0.83,0,0,1-1-.94c0.17-.84,1.06-0.95,1.75-1,1,0,1.12-.11,1.18-0.41,0.09-.46-0.17-0.61-0.91-0.61a1,1,0,0,0-1.21.68h-0.41Zm2.41,0.48a4,4,0,0,1-1.43.23,0.86,0.86,0,0,0-.94.58c-0.1.49,0.29,0.63,0.77,0.63a1.48,1.48,0,0,0,1.5-1Z" transform="translate(-171.9 -264.7)"/><path class="cls-3" d="M270.95,311.65h0.44l-0.15.71h0a1.56,1.56,0,0,1,1.36-.81,1,1,0,0,1,.26,0l-0.1.46a2.17,2.17,0,0,0-.4,0,1.35,1.35,0,0,0-1.31,1.18l-0.33,1.59H270.3Z" transform="translate(-171.9 -264.7)"/><path class="cls-3" d="M273.67,310.66h0.44l-0.2,1h0.88l-0.07.34h-0.88L273.41,314c-0.05.27,0,.4,0.37,0.4a2.31,2.31,0,0,0,.44,0l-0.08.37a3.58,3.58,0,0,1-.49,0c-0.68,0-.79-0.27-0.68-0.77l0.43-2.06h-0.68l0.07-.34h0.68Z" transform="translate(-171.9 -264.7)"/><path class="cls-3" d="M278.1,313.77a2,2,0,0,1-1.91,1.09,1.25,1.25,0,0,1-1.35-1.66,2,2,0,0,1,2-1.65,1.29,1.29,0,0,1,1.39,1.76h-3a0.92,0.92,0,0,0,1,1.18,1.37,1.37,0,0,0,1.39-.72h0.44Zm-0.2-.79a0.94,0.94,0,0,0-1.06-1.06,1.54,1.54,0,0,0-1.51,1.06h2.57Z" transform="translate(-171.9 -264.7)"/><path class="cls-3" d="M281.58,312.76c0.13-.62-0.2-0.83-0.77-0.83a1.38,1.38,0,0,0-1.51,1.15L279,314.76h-0.44l0.65-3.12h0.44l-0.13.61h0a1.74,1.74,0,0,1,1.44-.71,0.93,0.93,0,0,1,1.08,1.28l-0.4,1.93h-0.44Z" transform="translate(-171.9 -264.7)"/><path class="cls-3" d="M282.72,312.61a1.5,1.5,0,0,1,1.71-1.05c1,0,1.37.32,1.24,0.92l-0.34,1.63c-0.05.26,0,.35,0.17,0.35h0.24l-0.07.3a1.9,1.9,0,0,1-.38,0c-0.44,0-.41-0.31-0.37-0.55h0a1.88,1.88,0,0,1-1.59.62,0.83,0.83,0,0,1-1-.94c0.17-.84,1.06-0.95,1.75-1,1,0,1.12-.11,1.18-0.41,0.09-.46-0.17-0.61-0.91-0.61a1,1,0,0,0-1.21.68h-0.41Zm2.41,0.48a4,4,0,0,1-1.43.23,0.86,0.86,0,0,0-.94.58c-0.1.49,0.29,0.63,0.77,0.63a1.48,1.48,0,0,0,1.5-1Z" transform="translate(-171.9 -264.7)"/><path class="cls-3" d="M286.6,311.65H287l-0.65,3.12H286Zm0.25-1.2h0.44l-0.14.66h-0.44Z" transform="translate(-171.9 -264.7)"/><path class="cls-3" d="M287.72,311.65h0.44l-0.15.71h0a1.56,1.56,0,0,1,1.36-.81,1,1,0,0,1,.26,0l-0.1.46a2.17,2.17,0,0,0-.4,0,1.35,1.35,0,0,0-1.31,1.18l-0.33,1.59h-0.44Z" transform="translate(-171.9 -264.7)"/><path class="cls-3" d="M292.76,313.77a2,2,0,0,1-1.91,1.09,1.25,1.25,0,0,1-1.35-1.66,2,2,0,0,1,2-1.65,1.29,1.29,0,0,1,1.39,1.76h-3a0.92,0.92,0,0,0,1,1.18,1.37,1.37,0,0,0,1.39-.72h0.44Zm-0.2-.79a0.94,0.94,0,0,0-1.06-1.06A1.54,1.54,0,0,0,290,313h2.57Z" transform="translate(-171.9 -264.7)"/><path class="cls-3" d="M297.84,314.14h0a1.74,1.74,0,0,1-1.42.72,1.25,1.25,0,0,1-1.35-1.66,2,2,0,0,1,2-1.65,1.11,1.11,0,0,1,1.12.72h0l0.38-1.82h0.44l-0.89,4.32h-0.44ZM297,311.92a1.56,1.56,0,0,0-1.52,1.28,1,1,0,0,0,1,1.28,1.57,1.57,0,0,0,1.58-1.28A1,1,0,0,0,297,311.92Z" transform="translate(-171.9 -264.7)"/><path class="cls-3" d="M302.32,313.77a2,2,0,0,1-1.91,1.09,1.25,1.25,0,0,1-1.35-1.66,2,2,0,0,1,2-1.65,1.29,1.29,0,0,1,1.39,1.76h-3a0.92,0.92,0,0,0,1,1.18,1.37,1.37,0,0,0,1.39-.72h0.44Zm-0.2-.79a0.94,0.94,0,0,0-1.06-1.06,1.54,1.54,0,0,0-1.51,1.06h2.57Z" transform="translate(-171.9 -264.7)"/><path class="cls-3" d="M305.51,312.57c0-.5-0.29-0.65-0.94-0.65a0.88,0.88,0,0,0-1,.53c-0.08.32,0.13,0.39,1,.52s1.28,0.29,1.16.9a1.47,1.47,0,0,1-1.69,1c-1,0-1.52-.32-1.35-1.07h0.41c0,0.52.23,0.7,1,.7a1,1,0,0,0,1.16-.59c0.07-.31-0.14-0.45-1.08-0.55s-1.24-.32-1.13-0.88a1.36,1.36,0,0,1,1.54-.92c1,0,1.35.37,1.27,1h-0.41Z" transform="translate(-171.9 -264.7)"/><path class="cls-3" d="M308.37,311.65h0.44l-0.65,3.12h-0.44Zm0.25-1.2h0.44l-0.14.66h-0.44Z" transform="translate(-171.9 -264.7)"/><path class="cls-3" d="M311.91,312.76c0.13-.62-0.2-0.83-0.77-0.83a1.38,1.38,0,0,0-1.51,1.15l-0.35,1.69h-0.44l0.65-3.12h0.44l-0.13.61h0a1.74,1.74,0,0,1,1.44-.71,0.93,0.93,0,0,1,1.08,1.28l-0.4,1.93h-0.44Z" transform="translate(-171.9 -264.7)"/><path class="cls-3" d="M315.62,314.14h0a1.74,1.74,0,0,1-1.42.72,1.25,1.25,0,0,1-1.35-1.66,2,2,0,0,1,2-1.65,1.11,1.11,0,0,1,1.12.72h0l0.38-1.82h0.44l-0.89,4.32H315.5Zm-0.82-2.22a1.56,1.56,0,0,0-1.52,1.28,1,1,0,0,0,1,1.28,1.57,1.57,0,0,0,1.58-1.28A1,1,0,0,0,314.8,311.92Z" transform="translate(-171.9 -264.7)"/><path class="cls-3" d="M319.4,314.15h0a1.74,1.74,0,0,1-1.44.71,0.93,0.93,0,0,1-1.08-1.28l0.4-1.93h0.44l-0.42,2c-0.13.62,0.21,0.83,0.77,0.83a1.38,1.38,0,0,0,1.5-1.15l0.35-1.69h0.44l-0.65,3.12h-0.44Z" transform="translate(-171.9 -264.7)"/><path class="cls-3" d="M323.18,312.57c0-.5-0.29-0.65-0.94-0.65a0.88,0.88,0,0,0-1,.53c-0.08.32,0.13,0.39,1,.52s1.28,0.29,1.16.9a1.47,1.47,0,0,1-1.69,1c-1,0-1.52-.32-1.35-1.07h0.41c0,0.52.23,0.7,1,.7a1,1,0,0,0,1.16-.59c0.07-.31-0.14-0.45-1.08-0.55s-1.24-.32-1.13-0.88a1.36,1.36,0,0,1,1.54-.92c1,0,1.35.37,1.27,1h-0.41Z" transform="translate(-171.9 -264.7)"/><path class="cls-3" d="M324.89,310.66h0.44l-0.2,1H326l-0.07.34h-0.88L324.63,314c-0.05.27,0,.4,0.37,0.4a2.31,2.31,0,0,0,.44,0l-0.08.37a3.58,3.58,0,0,1-.49,0c-0.68,0-.79-0.27-0.68-0.77l0.43-2.06h-0.68l0.07-.34h0.68Z" transform="translate(-171.9 -264.7)"/><path class="cls-3" d="M326.5,311.65h0.44l-0.15.71h0a1.56,1.56,0,0,1,1.36-.81,1,1,0,0,1,.26,0l-0.1.46a2.17,2.17,0,0,0-.4,0,1.35,1.35,0,0,0-1.31,1.18l-0.33,1.59h-0.44Z" transform="translate(-171.9 -264.7)"/><path class="cls-3" d="M328.71,311.65h0.44l-0.65,3.12h-0.44Zm0.25-1.2h0.44l-0.14.66h-0.44Z" transform="translate(-171.9 -264.7)"/><path class="cls-3" d="M332.65,313.77a2,2,0,0,1-1.91,1.09,1.25,1.25,0,0,1-1.35-1.66,2,2,0,0,1,2-1.65,1.29,1.29,0,0,1,1.39,1.76h-3a0.92,0.92,0,0,0,1,1.18,1.37,1.37,0,0,0,1.39-.72h0.44Zm-0.2-.79a0.94,0.94,0,0,0-1.06-1.06,1.54,1.54,0,0,0-1.51,1.06h2.57Z" transform="translate(-171.9 -264.7)"/><path class="cls-3" d="M335.84,312.57c0-.5-0.29-0.65-0.94-0.65a0.88,0.88,0,0,0-1,.53c-0.08.32,0.13,0.39,1,.52s1.28,0.29,1.16.9a1.47,1.47,0,0,1-1.69,1c-1,0-1.52-.32-1.35-1.07h0.41c0,0.52.23,0.7,1,.7a1,1,0,0,0,1.16-.59c0.07-.31-0.14-0.45-1.08-0.55s-1.24-.32-1.13-0.88a1.36,1.36,0,0,1,1.54-.92c1,0,1.35.37,1.27,1h-0.41Z" transform="translate(-171.9 -264.7)"/><path class="cls-3" d="M341.07,314.14h0a1.74,1.74,0,0,1-1.42.72,1.25,1.25,0,0,1-1.35-1.66,2,2,0,0,1,2-1.65,1.11,1.11,0,0,1,1.12.72h0l0.38-1.82h0.44l-0.89,4.32h-0.44Zm-0.82-2.22a1.56,1.56,0,0,0-1.52,1.28,1,1,0,0,0,1,1.28,1.57,1.57,0,0,0,1.58-1.28A1,1,0,0,0,340.24,311.92Z" transform="translate(-171.9 -264.7)"/><path class="cls-3" d="M345.54,313.77a2,2,0,0,1-1.91,1.09,1.25,1.25,0,0,1-1.35-1.66,2,2,0,0,1,2-1.65,1.29,1.29,0,0,1,1.39,1.76h-3a0.92,0.92,0,0,0,1,1.18,1.37,1.37,0,0,0,1.39-.72h0.44Zm-0.2-.79a0.94,0.94,0,0,0-1.06-1.06,1.54,1.54,0,0,0-1.51,1.06h2.57Z" transform="translate(-171.9 -264.7)"/><path class="cls-3" d="M348.51,310.45H349l-0.89,4.32h-0.44Z" transform="translate(-171.9 -264.7)"/><path class="cls-3" d="M349.15,312.61a1.5,1.5,0,0,1,1.71-1.05c1,0,1.37.32,1.24,0.92l-0.34,1.63c-0.05.26,0,.35,0.17,0.35h0.24l-0.07.3a1.9,1.9,0,0,1-.38,0c-0.44,0-.41-0.31-0.37-0.55h0a1.88,1.88,0,0,1-1.59.62,0.83,0.83,0,0,1-1-.94c0.17-.84,1.06-0.95,1.75-1,1,0,1.12-.11,1.18-0.41,0.09-.46-0.17-0.61-0.91-0.61a1,1,0,0,0-1.21.68h-0.41Zm2.41,0.48a4,4,0,0,1-1.43.23,0.86,0.86,0,0,0-.94.58c-0.1.49,0.29,0.63,0.77,0.63a1.48,1.48,0,0,0,1.5-1Z" transform="translate(-171.9 -264.7)"/><path class="cls-3" d="M356.84,312.57c0-.5-0.29-0.65-0.94-0.65a0.88,0.88,0,0,0-1,.53c-0.08.32,0.13,0.39,1,.52s1.28,0.29,1.16.9a1.47,1.47,0,0,1-1.69,1c-1,0-1.52-.32-1.35-1.07h0.41c0,0.52.23,0.7,1,.7a1,1,0,0,0,1.16-.59c0.07-.31-0.14-0.45-1.08-0.55s-1.24-.32-1.13-0.88a1.36,1.36,0,0,1,1.54-.92c1,0,1.35.37,1.27,1h-0.41Z" transform="translate(-171.9 -264.7)"/><path class="cls-3" d="M357.82,312.61a1.5,1.5,0,0,1,1.71-1.05c1,0,1.37.32,1.24,0.92l-0.34,1.63c-0.05.26,0,.35,0.17,0.35h0.24l-0.07.3a1.9,1.9,0,0,1-.38,0c-0.44,0-.41-0.31-0.37-0.55h0a1.88,1.88,0,0,1-1.59.62,0.83,0.83,0,0,1-1-.94c0.17-.84,1.06-0.95,1.75-1,1,0,1.12-.11,1.18-0.41,0.09-.46-0.17-0.61-0.91-0.61a1,1,0,0,0-1.21.68h-0.41Zm2.41,0.48a4,4,0,0,1-1.43.23,0.86,0.86,0,0,0-.94.58c-0.1.49,0.29,0.63,0.77,0.63a1.48,1.48,0,0,0,1.5-1Z" transform="translate(-171.9 -264.7)"/><path class="cls-3" d="M364.13,312.76c0.13-.62-0.2-0.83-0.77-0.83a1.38,1.38,0,0,0-1.51,1.15l-0.35,1.69h-0.44l0.65-3.12h0.44l-0.13.61h0a1.74,1.74,0,0,1,1.44-.71,0.93,0.93,0,0,1,1.08,1.28l-0.4,1.93h-0.44Z" transform="translate(-171.9 -264.7)"/><path class="cls-3" d="M366,310.66h0.44l-0.2,1h0.88L367,312h-0.88L365.73,314c-0.05.27,0,.4,0.37,0.4a2.31,2.31,0,0,0,.44,0l-0.08.37a3.58,3.58,0,0,1-.49,0c-0.68,0-.79-0.27-0.68-0.77l0.43-2.06H365l0.07-.34h0.68Z" transform="translate(-171.9 -264.7)"/><path class="cls-3" d="M370.43,313.77a2,2,0,0,1-1.91,1.09,1.25,1.25,0,0,1-1.35-1.66,2,2,0,0,1,2-1.65,1.29,1.29,0,0,1,1.39,1.76h-3a0.92,0.92,0,0,0,1,1.18,1.37,1.37,0,0,0,1.39-.72h0.44Zm-0.2-.79a0.94,0.94,0,0,0-1.06-1.06,1.54,1.54,0,0,0-1.51,1.06h2.57Zm-0.31-2.66h0.55l-1,.85h-0.37Z" transform="translate(-171.9 -264.7)"/></svg>