<svg id="Calque_1" data-name="Calque 1" xmlns="http://www.w3.org/2000/svg" xmlns:xlink="http://www.w3.org/1999/xlink" viewBox="0 0 87.49 48.2"><defs><style>.cls-1{fill:url(#Dégradé_sans_nom_11);}</style><linearGradient id="Dégradé_sans_nom_11" y1="24.05" x2="87.49" y2="24.05" gradientUnits="userSpaceOnUse"><stop offset="0" stop-color="#00bae7"/><stop offset="0.99" stop-color="#8dc63f"/></linearGradient></defs><title>management2</title><path class="cls-1" d="M84.92,36.18a8.52,8.52,0,0,0-6.78-2.8h0a0.87,0.87,0,0,0-.37.11l-0.15.13-0.1.06a5.56,5.56,0,0,1-7.08,0l-0.11-.06-0.1-.06a0.87,0.87,0,0,0-.41-0.12h0a8.52,8.52,0,0,0-6.76,2.79c-3.35,3.87-2.46,10.29-2.43,10.56a0.89,0.89,0,0,0,.88.76h25a0.89,0.89,0,0,0,.88-0.76C87.39,46.47,88.27,40.05,84.92,36.18ZM74,36.69a7.28,7.28,0,0,0,2.17-.33L74,40.86l-2.22-4.5A7.28,7.28,0,0,0,74,36.69Zm11.68,9H62.3c-0.11-1.69-.13-5.82,2.08-8.38a6.62,6.62,0,0,1,4.89-2.17l3.91,8.1a0.89,0.89,0,0,0,1.6,0l3.91-8.1a6.61,6.61,0,0,1,4.88,2.16c2.19,2.58,2.19,6.73,2.09,8.42v0ZM74,32.31a7.41,7.41,0,1,0-7.41-7.41A7.41,7.41,0,0,0,74,32.31Zm0-13a5.63,5.63,0,1,1-5.63,5.63h0a5.64,5.64,0,0,1,5.6-5.68h0v0ZM17.66,33.39h0a0.87,0.87,0,0,0-.37.11l-0.14.12-0.1.06a5.56,5.56,0,0,1-7.08,0l-0.11-.06-0.1-.11a0.87,0.87,0,0,0-.41-0.12h0a8.52,8.52,0,0,0-6.79,2.79C-0.79,40.05.1,46.47,0.14,46.74A0.89,0.89,0,0,0,1,47.5H26a0.89,0.89,0,0,0,.88-0.76c0-.27.92-6.69-2.42-10.56A8.52,8.52,0,0,0,17.66,33.39ZM13.5,36.7a7.28,7.28,0,0,0,2.17-.33l-2.17,4.5-2.17-4.49a7.28,7.28,0,0,0,2.17.31h0Zm11.68,9H1.82C1.71,44,1.69,39.88,3.9,37.32a6.62,6.62,0,0,1,4.86-2.14l3.91,8.1a0.93,0.93,0,0,0,1.6,0l3.91-8.1a6.61,6.61,0,0,1,4.88,2.16c2.24,2.54,2.23,6.69,2.12,8.38v0ZM13.5,32.31A7.41,7.41,0,1,0,6.09,24.9,7.41,7.41,0,0,0,13.5,32.31Zm0-13a5.63,5.63,0,1,1-5.63,5.63,5.63,5.63,0,0,1,5.63-5.63h0v0ZM63.5,24a0.87,0.87,0,0,0,.82-0.4,0.89,0.89,0,0,0,0-.91c-1-1.91-2.15-4.06-2.48-4.79a13.41,13.41,0,1,0-23,4,13.23,13.23,0,0,0-7.92,5.77l-5.33,1.1a0.89,0.89,0,0,0-.45,1.5c1.54,1.54,3.23,3.28,3.75,3.88a13.39,13.39,0,0,0,12.71,14l0.68,0h0A13.33,13.33,0,0,0,52.66,26.33a13.3,13.3,0,0,0,5.44-2.86ZM52.71,29.62a11.64,11.64,0,0,1-5.33,15.54,11.5,11.5,0,0,1-5.1,1.18h0a11.61,11.61,0,0,1-11.62-11.6q0-.42,0-0.84c0-.44,0-0.58-3.12-3.77l3.94-.81a0.89,0.89,0,0,0,.73-0.44A11.62,11.62,0,0,1,52.71,29.62Zm4.48-7.76a11.56,11.56,0,0,1-5.93,3,13.21,13.21,0,0,0-10.38-3.41,11.61,11.61,0,1,1,19.23-3.9C59.95,18,59.9,18.09,62,22l-4-.36a0.88,0.88,0,0,0-.83.2v0Zm-7.94,9.06H46.46a4.42,4.42,0,0,0,.09-1.3,3.55,3.55,0,0,0-1.38-2.56,2.18,2.18,0,0,0-1.89-.3c-1.28.38-1.23,2-1.19,3v0.38a2.73,2.73,0,0,1-1.55,2A1.18,1.18,0,0,0,40,32.08H35.29a0.89,0.89,0,0,0-.71.36c-0.24.31-.5,0.67,0.4,7.39a0.89,0.89,0,0,0,.88.77h4.47a0.92,0.92,0,0,0,.83-0.48l0.25,0.12a0.89,0.89,0,0,0,.37.08h5.58a2.23,2.23,0,0,0,2.23-1,1.68,1.68,0,0,0,0-1.31,1.91,1.91,0,0,0,.54-1.09,1.79,1.79,0,0,0-.07-0.76,2,2,0,0,0,.42-0.77,2.07,2.07,0,0,0,0-.89A1.82,1.82,0,0,0,51.31,33a2,2,0,0,0-2-2H49.25v0ZM39.18,38.81H36.63c-0.24-1.91-.46-3.93-0.51-5h3.06v5Zm10.07-5.66a0.89,0.89,0,0,0-.61.52,0.9,0.9,0,0,0,.06.81,0.67,0.67,0,0,1,.1.42,0.51,0.51,0,0,1-.25.21,0.89,0.89,0,0,0-.47.64,0.92,0.92,0,0,0,.23.77,0.41,0.41,0,0,1,.09.15A0.83,0.83,0,0,1,48,37a0.89,0.89,0,0,0-.42.6,0.9,0.9,0,0,0,.17.71,1.14,1.14,0,0,1,.11.18,2.62,2.62,0,0,1-.54,0H42l-0.68-.31A0.88,0.88,0,0,0,41,38.08V33.92c1.87-1,2.91-2.3,2.91-3.77V29.71a5.73,5.73,0,0,1,0-1.24,0.47,0.47,0,0,1,.25.08,1.82,1.82,0,0,1,.64,1.25,3.24,3.24,0,0,1-.35,1.6,0.89,0.89,0,0,0,.77,1.33h4c0.37,0,.37.12,0.37,0.22A0.77,0.77,0,0,1,49.25,33.15ZM44.58,11.79a1.37,1.37,0,1,0,1.37,1.37h0A1.37,1.37,0,0,0,44.58,11.79Zm4.93,0a1.37,1.37,0,1,0,1.37,1.37h0A1.37,1.37,0,0,0,49.51,11.79Zm4.72,0a1.37,1.37,0,1,0,1.37,1.37h0A1.37,1.37,0,0,0,54.23,11.79Z" transform="translate(0 0.05)"/></svg>
