<?xml version="1.0" encoding="iso-8859-1"?>
<!-- Generator: Adobe Illustrator 19.2.1, SVG Export Plug-In . SVG Version: 6.00 Build 0)  -->
<svg version="1.1" id="Calque_1" xmlns="http://www.w3.org/2000/svg" xmlns:xlink="http://www.w3.org/1999/xlink" x="0px" y="0px"
	 viewBox="0 0 120 120" style="enable-background:new 0 0 120 120;" xml:space="preserve">
<g transform="translate(0,-1020.3622)">
	<path style="fill:#FFFFFF;" d="M30.133,1027.667c-4-0.3-8.1,0.6-11.8,2.7c-9.9,5.7-13.4,18.5-7.7,28.5c5.7,9.9,18.5,13.4,28.5,7.7
		c9.9-5.7,13.4-18.5,7.7-28.5C43.133,1031.867,36.733,1028.167,30.133,1027.667z M29.833,1031.867c4.7,0.3,9.1,2.7,12.1,6.6
		l-28.6,16.4c-3.2-7.6-0.3-16.5,7-20.8C23.333,1032.367,26.633,1031.567,29.833,1031.867z M91.833,1038.967c-3.7,0-7.4,1.3-10.3,4.2
		l-13.1,13.3c-0.3,0.1-0.6,0.4-0.8,0.6l-12.6,12.6c-5.7,5.7-5.7,14.9,0,20.5s14.9,5.7,20.5,0l12.9-12.7l0.1-0.1l0.1-0.1
		c0.2-0.2,0.3-0.3,0.4-0.5l13-12.9c5.7-5.7,5.7-15,0-20.7C99.233,1040.267,95.533,1038.967,91.833,1038.967z M43.933,1041.967
		c3.3,7.7,0.5,16.6-6.9,20.9c-7.4,4.3-16.6,2.1-21.6-4.5L43.933,1041.967z M91.833,1042.967c2.7,0,5.2,1.1,7.3,3.1
		c4.1,4.1,4.1,10.6,0,14.7l-12,12.1l-14.7-14.7l12-12.1C86.533,1044.067,89.233,1042.967,91.833,1042.967z M69.533,1061.067
		l14.7,14.8l-11.4,11.4c-4.1,4.1-10.6,4.1-14.7,0s-4.1-10.6,0-14.7L69.533,1061.067z M22.433,1077.567c-3.7,0-7.4,1.5-10.3,4.3
		c-5.7,5.7-5.7,15,0,20.7l13.1,13c0.2,0.4,0.5,0.7,0.9,0.9l12.3,12.5c5.7,5.7,15,5.7,20.7,0s5.7-14.9,0-20.5l-12.7-12.6
		c-0.1-0.2-0.3-0.5-0.5-0.6l-13.3-13.3C29.833,1079.067,26.133,1077.567,22.433,1077.567z M22.433,1081.767c2.7,0,5.2,1.1,7.3,3.1
		l12.1,12.1l-14.7,14.7l-12.1-12.1c-4.1-4.1-4.1-10.6,0-14.7C17.133,1082.767,19.833,1081.767,22.433,1081.767z M95.233,1085.867
		c-4.3,0-8.6,1.6-11.8,4.8c-6.5,6.5-6.5,17.2,0,23.7s17.2,6.5,23.7,0s6.5-17.2,0-23.7
		C103.833,1087.467,99.533,1085.867,95.233,1085.867z M95.233,1090.067c2.5,0,5,0.8,7.1,2.3l-17.3,17.3c-3.4-4.9-3.1-11.6,1.3-16
		C88.833,1091.267,92.033,1090.067,95.233,1090.067z M105.333,1095.267c3.5,4.9,3.1,11.7-1.3,16.1s-11.2,4.8-16.1,1.3
		L105.333,1095.267z M44.633,1099.767l11.6,11.4c4.1,4.1,4.1,10.7,0,14.8c-4.1,4.1-10.6,4.1-14.7,0l-11.6-11.6L44.633,1099.767z"/>
</g>
</svg>
