<?xml version="1.0" encoding="iso-8859-1"?>
<!-- Generator: Adobe Illustrator 19.2.1, SVG Export Plug-In . SVG Version: 6.00 Build 0)  -->
<svg version="1.1" xmlns="http://www.w3.org/2000/svg" xmlns:xlink="http://www.w3.org/1999/xlink" x="0px" y="0px"
	 viewBox="0 0 12.875 26.75" style="enable-background:new 0 0 12.875 26.75;" xml:space="preserve">
<g id="Calque_1">
</g>
<g id="Calque_2">
	<g>
		<path style="fill:#FFFFFF;" d="M6.943,17.866H5.635c-2.413,0-4.375-1.963-4.375-4.375V5.68c0-2.413,1.962-4.375,4.375-4.375h1.309
			c2.412,0,4.375,1.962,4.375,4.375v7.811C11.318,15.903,9.355,17.866,6.943,17.866z M5.635,2.055c-1.999,0-3.625,1.626-3.625,3.625
			v7.811c0,1.999,1.626,3.625,3.625,3.625h1.309c1.999,0,3.625-1.626,3.625-3.625V5.68c0-1.999-1.626-3.625-3.625-3.625H5.635z"/>
	</g>
	<g>
		<rect x="5.914" y="4.897" style="fill:#FFFFFF;" width="0.75" height="3.696"/>
	</g>
	<polygon style="fill:#FFFFFF;" points="8.364,21.957 6.649,23.673 6.664,19.957 5.914,19.953 5.899,23.679 4.188,21.969 
		3.657,22.5 6.271,25.113 6.282,25.102 6.802,24.582 8.896,22.488 	"/>
</g>
</svg>
