<?xml version="1.0" encoding="iso-8859-1"?>
<!-- Generator: Adobe Illustrator 19.2.1, SVG Export Plug-In . SVG Version: 6.00 Build 0)  -->
<svg version="1.1" id="Calque_1" xmlns="http://www.w3.org/2000/svg" xmlns:xlink="http://www.w3.org/1999/xlink" x="0px" y="0px"
	 viewBox="0 0 120 120" style="enable-background:new 0 0 120 120;" xml:space="preserve">
<g transform="translate(0,-1020.3622)">
	<path style="fill:#FFFFFF;" d="M24.473,1042.394c-3.52,0-6.375,2.854-6.375,6.375c0,2.759,1.713,5.233,4.282,6.089v25.785H5.348
		v4.282h8.468v33.967H1.067v4.282H120v-4.282h-12.75v-33.967h8.468v-4.282H98.687v-25.785c2.474-0.856,4.282-3.33,4.282-6.089
		c0-3.52-2.854-6.375-6.375-6.375h-12.75c-3.52,0-6.375,2.854-6.375,6.375c0,2.759,1.713,5.233,4.282,6.089v25.785h-12.75v-25.785
		c2.474-0.856,4.282-3.33,4.282-6.089c0-3.52-2.854-6.375-6.375-6.375h-12.75c-3.52,0-6.375,2.854-6.375,6.375
		c0,2.759,1.713,5.233,4.282,6.089v25.785h-12.75v-25.785c2.474-0.856,4.282-3.33,4.282-6.089c0-3.52-2.854-6.375-6.375-6.375
		L24.473,1042.394L24.473,1042.394z M24.473,1046.58h12.75c1.237,0,2.093,0.951,2.093,2.093c0,1.142-0.856,2.093-1.998,2.093
		c-0.095,0-0.095,0-0.095,0h-12.75c-0.19,0-0.285,0-0.381,0c-0.951-0.19-1.713-1.047-1.713-2.093
		C22.284,1047.531,23.236,1046.58,24.473,1046.58z M54.159,1046.58h12.75c1.237,0,2.093,0.951,2.093,2.093
		c0,1.237-0.951,2.093-2.093,2.093h-12.75c-1.237,0-2.093-0.951-2.093-2.093C52.065,1047.531,52.922,1046.58,54.159,1046.58z
		 M83.939,1046.58h12.75c1.237,0,2.093,0.951,2.093,2.093c0,1.237-0.951,2.093-2.093,2.093h-12.75c-1.237,0-2.093-0.951-2.093-2.093
		C81.751,1047.531,82.702,1046.58,83.939,1046.58z M26.566,1055.048h8.468v25.499h-8.468V1055.048z M56.347,1055.048h8.468v25.499
		h-8.468L56.347,1055.048L56.347,1055.048z M86.033,1055.048h8.468v25.499h-8.468V1055.048z M18.098,1084.829h4.282v21.218
		c0,4.662,3.806,8.468,8.468,8.468s8.468-3.806,8.468-8.468v-21.218h12.75v21.218c0,4.662,3.806,8.468,8.468,8.468
		s8.468-3.806,8.468-8.468v-21.218h12.75v21.218c0,4.662,3.806,8.468,8.468,8.468c4.662,0,8.468-3.806,8.468-8.468v-21.218h4.282
		v33.967H18.003v-33.967H18.098z M26.566,1084.829h8.468v21.218c0,2.379-1.903,4.282-4.282,4.282s-4.282-1.903-4.282-4.282v-21.218
		H26.566z M56.347,1084.829h8.468v21.218c0,2.379-1.903,4.282-4.282,4.282s-4.282-1.903-4.282-4.282v-21.218H56.347z
		 M86.033,1084.829h8.468v21.218c0,2.379-1.903,4.282-4.282,4.282c-2.379,0-4.282-1.903-4.282-4.282v-21.218H86.033z"/>
</g>
</svg>
