<?xml version="1.0" encoding="iso-8859-1"?>
<!-- Generator: Adobe Illustrator 19.2.1, SVG Export Plug-In . SVG Version: 6.00 Build 0)  -->
<svg version="1.1" id="Calque_1" xmlns="http://www.w3.org/2000/svg" xmlns:xlink="http://www.w3.org/1999/xlink" x="0px" y="0px"
	 viewBox="0 0 120 120" style="enable-background:new 0 0 120 120;" xml:space="preserve">
<g transform="translate(0,-1020.3622)">
	<path style="fill:#FFFFFF;" d="M40.601,1033.85c-1.127,0.356-1.898,1.424-1.839,2.61v13.169H15.39
		c-4.568,0-8.245,3.678-8.245,8.245v62.404c0,4.568,3.678,8.245,8.245,8.245h88.919c4.568,0,8.245-3.678,8.245-8.245v-62.344
		c0-4.568-3.678-8.245-8.245-8.245H80.76v-13.169c0-1.483-1.186-2.61-2.61-2.61H41.431
		C41.135,1033.791,40.838,1033.791,40.601,1033.85z M44.041,1039.13h31.439v10.559H44.041V1039.13z M15.39,1054.968h88.919
		c1.72,0,2.966,1.246,2.966,2.966v62.404c0,1.72-1.246,2.966-2.966,2.966H15.39c-1.72,0-2.966-1.246-2.966-2.966v-62.404
		C12.424,1056.213,13.67,1054.968,15.39,1054.968z M51.456,1065.289c-1.305,0.178-2.313,1.305-2.313,2.61v10.559H38.584
		c-1.483,0-2.61,1.186-2.61,2.61v15.838c0,1.483,1.186,2.61,2.61,2.61h10.559v10.559c0,1.483,1.186,2.61,2.61,2.61h15.838
		c1.483,0,2.61-1.186,2.61-2.61v-10.559H80.76c1.483,0,2.61-1.186,2.61-2.61v-15.838c0-1.483-1.186-2.61-2.61-2.61H70.201v-10.559
		c0-1.483-1.186-2.61-2.61-2.61H51.753C51.694,1065.289,51.575,1065.289,51.456,1065.289z M54.422,1070.569h10.559v10.559
		c0,1.483,1.186,2.61,2.61,2.61H78.15v10.559H67.591c-1.483,0-2.61,1.186-2.61,2.61v10.559H54.422v-10.559
		c0-1.483-1.186-2.61-2.61-2.61H41.254v-10.559h10.559c1.483,0,2.61-1.186,2.61-2.61V1070.569z"/>
</g>
</svg>
