<svg id="Calque_1" data-name="Calque 1" xmlns="http://www.w3.org/2000/svg" xmlns:xlink="http://www.w3.org/1999/xlink" viewBox="0 0 27.88 27.9"><defs><style>.cls-1{fill:url(#Dégradé_sans_nom_13);}.cls-2{fill:url(#Dégradé_sans_nom_13-2);}.cls-3{fill:url(#Dégradé_sans_nom_13-3);}</style><linearGradient id="Dégradé_sans_nom_13" y1="7.02" x2="14.06" y2="7.02" gradientUnits="userSpaceOnUse"><stop offset="0" stop-color="#00bae7"/><stop offset="1" stop-color="#8dc63f"/></linearGradient><linearGradient id="Dégradé_sans_nom_13-2" x1="14.05" y1="20.97" x2="27.88" y2="20.97" xlink:href="#Dégradé_sans_nom_13"/><linearGradient id="Dégradé_sans_nom_13-3" x1="0.59" y1="14.41" x2="26.78" y2="14.41" xlink:href="#Dégradé_sans_nom_13"/></defs><title>project</title><path class="cls-1" d="M8.43,13.35L7.6,12.52,10.08,10a0.49,0.49,0,0,0,0-.69l0,0a0.5,0.5,0,0,0-.71,0h0L6.86,11.81,5.43,10.43,7.22,8.62a0.49,0.49,0,0,0,0-.69h0a0.5,0.5,0,0,0-.7,0L4.74,9.69,3.32,8.27,5.8,5.8a0.49,0.49,0,0,0,0-.69l0,0a0.5,0.5,0,0,0-.71,0h0L2.62,7.57,1.2,6.15,6.15,1.2l7.2,7.23,0.71-.71L6.51,0.14a0.5,0.5,0,0,0-.71,0h0L0.15,5.79a0.5,0.5,0,0,0,0,.71h0L7.69,14Z" transform="translate(0 0.01)"/><path class="cls-2" d="M27.72,21.35L20.43,14l-0.71.71,7,6.95-5,5-1.41-1.41,2.48-2.48a0.49,0.49,0,0,0,0-.69l0,0a0.5,0.5,0,0,0-.71,0h0L19.6,24.54l-1.41-1.41,1.06-1.06a0.49,0.49,0,0,0,0-.69h0a0.5,0.5,0,0,0-.7,0l-1.12,1.06L16,21l2.48-2.48a0.49,0.49,0,0,0,0-.69l0,0a0.5,0.5,0,0,0-.71,0h0l-2.48,2.48-0.59-.59L14,20.43l7.3,7.3a0.5,0.5,0,0,0,.71,0h0l5.64-5.64a0.5,0.5,0,0,0,0-.71Z" transform="translate(0 0.01)"/><path class="cls-3" d="M26.19,4L24.07,1.91a2,2,0,0,0-2.83,0h0l-19,19a0.5,0.5,0,0,0-.13.23l-1.5,5.74a0.5,0.5,0,0,0,.61.61L7,26a0.5,0.5,0,0,0,.23-0.13l19-19a2,2,0,0,0,0-2.83h0Zm-6.36.71,0.7,0.69L4.27,21.71,3.56,21Zm1.41,1.41,0.71,0.71L5.69,23.13,5,22.43ZM1.78,26.32L3,21.82l3.31,3.31ZM7.1,24.54l-0.67-.71L22.66,7.57l0.71,0.71ZM25.43,6.16L24.07,7.57,20.53,4l1.41-1.4a1,1,0,0,1,1.41,0h0l2.12,2.12A1,1,0,0,1,25.43,6.16Z" transform="translate(0 0.01)"/></svg>
