<svg id="Calque_1" data-name="Calque 1" xmlns="http://www.w3.org/2000/svg" xmlns:xlink="http://www.w3.org/1999/xlink" viewBox="0 0 390.92 512.01"><defs><style>.cls-1{fill:url(#Dégradé_sans_nom_9);}.cls-2{fill:url(#Dégradé_sans_nom_9-2);}</style><linearGradient id="Dégradé_sans_nom_9" y1="256.01" x2="390.92" y2="256.01" gradientUnits="userSpaceOnUse"><stop offset="0" stop-color="#00bae7"/><stop offset="1" stop-color="#8dc63f"/></linearGradient><linearGradient id="Dégradé_sans_nom_9-2" x1="112.2" y1="195.28" x2="278.76" y2="195.28" xlink:href="#Dégradé_sans_nom_9"/></defs><title>quality2</title><path class="cls-1" d="M390.92,195.31a15.32,15.32,0,0,0-4.33-10.69l-31.13-32.19,10.88-43.5a15.22,15.22,0,0,0-1.59-11.34,15.4,15.4,0,0,0-9.09-7.11L312.57,78.2,300.26,35.06a15.38,15.38,0,0,0-7.09-9,15.61,15.61,0,0,0-11.39-1.59L238.34,35.32,206.1,4.14a15.75,15.75,0,0,0-21.28,0L152.66,35.35,109.1,24.43A15.83,15.83,0,0,0,97.76,26a15.36,15.36,0,0,0-7.09,9.06L78.46,78.18,35.26,90.52A15.28,15.28,0,0,0,24.6,109l10.94,43.42L4.3,184.65a15.34,15.34,0,0,0,0,21.3l31.16,32.14L24.6,281.67A15.19,15.19,0,0,0,26.19,293a15.44,15.44,0,0,0,9,7.09l43.08,12.22L90.61,355.5A15.32,15.32,0,0,0,109,366.14l9.64-2.42V495.47A16.56,16.56,0,0,0,135.27,512a16.38,16.38,0,0,0,11.53-4.7l48.66-45.92L244,507.23a16.53,16.53,0,0,0,28.16-11.75V363.78l9.66,2.41a15.79,15.79,0,0,0,11.36-1.62,15.41,15.41,0,0,0,7.09-9.09l12.28-43.06,43.14-12.31a15.32,15.32,0,0,0,10.61-18.47l-10.86-43.49L386.62,206A15.23,15.23,0,0,0,390.92,195.31Zm-137,296.22L206.61,446.9a16.71,16.71,0,0,0-22.14-.2l-47.52,44.83V359.14l15.55-3.92,32.3,31.25a15.75,15.75,0,0,0,21.33,0l32.19-31.16,15.61,3.91V491.53h0ZM337,233.25l12.83,51.17-50.77,14.52-14.5,50.75-51.19-12.81-37.91,36.71-38-36.81-51.11,12.91L91.82,298.81,41.08,284.44l12.86-51.31L17.2,195.33l36.78-38L41.09,106.22,91.95,91.67l14.39-50.72,51.3,12.84L195.46,17l37.92,36.72,51.19-12.83,14.5,50.75,50.77,14.52L337,157.35l36.72,37.94Z" transform="translate(0 0)"/><path class="cls-2" d="M195.46,112a83.28,83.28,0,1,0,83.3,83.28A83.28,83.28,0,0,0,195.46,112Zm0,148.35a65.06,65.06,0,1,1,65.06-65.06,65.06,65.06,0,0,1-65.06,65.06v0Z" transform="translate(0 0)"/></svg>
