<svg id="Calque_1" data-name="Calque 1" xmlns="http://www.w3.org/2000/svg" xmlns:xlink="http://www.w3.org/1999/xlink" viewBox="0 0 90.26 89.95"><defs><style>.cls-1{fill:url(#Dégradé_sans_nom_9);}</style><linearGradient id="Dégradé_sans_nom_9" y1="45.05" x2="90.26" y2="45.05" gradientUnits="userSpaceOnUse"><stop offset="0" stop-color="#00bae7"/><stop offset="1" stop-color="#8dc63f"/></linearGradient></defs><title>recycle2</title><path class="cls-1" d="M59.23,90a1.5,1.5,0,0,1-1.06-.46l-13.06-13a1.5,1.5,0,0,1,0-2.12L58.17,61.35a1.5,1.5,0,0,1,2.56,1.06v5.23h9.36c2.55,0,4.09-.68,4.36-1.15s0.17-2-1.18-4.36L65.35,48.36a1.5,1.5,0,0,1,.55-2L76.9,40a1.5,1.5,0,0,1,2,.55l8,13.78c4,7,4.48,14.3,1.18,20s-9.82,9-17.91,9H60.73v5.19A1.5,1.5,0,0,1,59.23,90ZM48.3,75.46l9.43,9.44V81.79a1.5,1.5,0,0,1,1.5-1.5H70.09c7,0,12.57-2.72,15.31-7.47s2.31-10.95-1.18-17L77,43.34l-8.35,4.82,7.21,12.48c1.73,3,2.16,5.67,1.18,7.36s-3.5,2.65-6.95,2.65H59.23a1.5,1.5,0,0,1-1.5-1.5V66ZM36,83.29H20.1c-8.09,0-14.62-3.27-17.91-9s-2.84-13,1.16-20L8,46.21,3.52,43.56a1.5,1.5,0,0,1,.36-2.75L21.71,36a1.5,1.5,0,0,1,1.84,1.06h0l4.72,17.6a1.5,1.5,0,0,1-1.38,2.12,1.75,1.75,0,0,1-.76-0.2L21.6,54,16.92,62.1c-1.35,2.33-1.44,3.91-1.18,4.36s1.81,1.15,4.35,1.15H36a1.5,1.5,0,0,1,1.5,1.5V81.79A1.5,1.5,0,0,1,36,83.29ZM8.15,42.8l2.7,1.56a1.5,1.5,0,0,1,.55,2L6,55.76C2.48,61.86,2,68.06,4.79,72.81s8.32,7.48,15.31,7.48H34.51V70.64H20.1c-3.45,0-6-1-7-2.65s-0.5-4.37,1.25-7.36l5.43-9.4a1.5,1.5,0,0,1,2-.55l2.7,1.56L21,39.35ZM67,37.14a1.49,1.49,0,0,1-.39,0L48.78,32.32a1.5,1.5,0,0,1-.36-2.76l4.53-2.62-4.68-8.1c-1.35-2.33-2.67-3.2-3.19-3.2s-1.9,1-3.18,3.2l-8,13.78a1.5,1.5,0,0,1-2,.55l-11-6.32a1.5,1.5,0,0,1-.55-2l8-13.78c4-7,10.14-11,16.73-11s12.69,4,16.73,11l4.68,8.11L71,16.56a1.5,1.5,0,0,1,2.2,1.69L68.45,36A1.5,1.5,0,0,1,67,37.14h0ZM53.06,30.35L65.95,33.8l3.46-12.88-2.69,1.56a1.5,1.5,0,0,1-2-.55l-5.49-9.37C55.74,6.51,50.58,3,45.1,3S34.46,6.47,31,12.56L23.75,25l8.35,4.82,7.25-12.48c1.72-3,3.83-4.7,5.78-4.7s4.06,1.72,5.78,4.7l5.44,9.41a1.5,1.5,0,0,1-.55,2Z" transform="translate(0 -0.07)"/></svg>
