<svg id="Calque_1" data-name="Calque 1" xmlns="http://www.w3.org/2000/svg" xmlns:xlink="http://www.w3.org/1999/xlink" viewBox="0 0 78.52 49.75"><defs><style>.cls-1{fill:url(#Dégradé_sans_nom_10);}</style><linearGradient id="Dégradé_sans_nom_10" y1="24.88" x2="78.52" y2="24.88" gradientUnits="userSpaceOnUse"><stop offset="0" stop-color="#00bae7"/><stop offset="1" stop-color="#8dc63f"/></linearGradient></defs><title>team</title><path class="cls-1" d="M46,27.95a0.83,0.83,0,0,0-.58.27h0a9.62,9.62,0,0,1-12.33,0h0a0.84,0.84,0,0,0-.58-0.27c-4.53,0-8.09,1.46-10.59,4.35C16.68,38.39,18.08,48.58,18.14,49a0.86,0.86,0,0,0,.86.74H59.57A0.86,0.86,0,0,0,60.4,49c0.06-.43,1.47-10.62-3.81-16.71C54.12,29.41,50.56,27.95,46,27.95Zm-6.77,4.21a11.27,11.27,0,0,0,4.68-1l-4.68,9.7-4.68-9.7A11.27,11.27,0,0,0,39.26,32.16ZM58.79,48H19.73c-0.21-2.39-.5-10,3.49-14.6A11.49,11.49,0,0,1,32,29.67L38.49,43.2a0.9,0.9,0,0,0,1.56,0l6.53-13.53a11.49,11.49,0,0,1,8.74,3.74C59.3,38,59,45.62,58.79,48ZM39.26,25A11.47,11.47,0,1,0,27.79,13.54h0A11.48,11.48,0,0,0,39.26,25h0Zm0-21.21a9.74,9.74,0,1,1-9.74,9.74h0a9.75,9.75,0,0,1,9.74-9.73h0ZM75.62,21.4A9.64,9.64,0,0,0,68,18.24h0a0.86,0.86,0,0,0-.37.1l-0.1.07-0.1.06a6.54,6.54,0,0,1-8.35,0l-0.11-.07-0.1-.06a0.87,0.87,0,0,0-.42-0.08h0c-5,0-8.33,2.47-9.78,7.12a0.87,0.87,0,0,0,1.65.51A7.71,7.71,0,0,1,57.88,20L62.4,29.4a0.86,0.86,0,0,0,1.56,0L68.5,20a7.79,7.79,0,0,1,5.82,2.54c2.64,3,2.56,8,2.42,9.89H61.48a0.87,0.87,0,0,0,0,1.73h16a0.86,0.86,0,0,0,.92-0.75c0-.3,1-7.65-2.78-12h0ZM63.17,27L60.4,21.25a8.15,8.15,0,0,0,5.59,0Zm0-10.33a8.35,8.35,0,1,0-8.35-8.35h0A8.36,8.36,0,0,0,63.17,16.7Zm0-15a6.59,6.59,0,1,0,0,.06V1.7ZM17,32.43H1.8c-0.14-1.87-.22-6.83,2.42-9.88A7.79,7.79,0,0,1,10,20l4.54,9.4a0.9,0.9,0,0,0,1.56,0L20.68,20a7.71,7.71,0,0,1,7.61,5.9,0.87,0.87,0,0,0,1.65-.51c-1.45-4.66-4.84-7.12-9.8-7.12h0a0.86,0.86,0,0,0-.37.1l-0.1.07-0.1.06a6.54,6.54,0,0,1-8.35,0l-0.1-.07L11,18.37a0.86,0.86,0,0,0-.39-0.11h0A9.64,9.64,0,0,0,3,21.41C-0.9,25.76.11,33.1,0.15,33.41a0.86,0.86,0,0,0,.86.74H17A0.86,0.86,0,1,0,17,32.43ZM15.4,21.76a8.18,8.18,0,0,0,2.79-.49L15.4,27l-2.79-5.79A8.19,8.19,0,0,0,15.4,21.76Zm0-5A8.35,8.35,0,1,0,7,8.41H7A8.36,8.36,0,0,0,15.4,16.7v0.06Zm0-15A6.62,6.62,0,1,1,8.78,8.38h0A6.63,6.63,0,0,1,15.4,1.76Z" transform="translate(0 0)"/></svg>
