<svg id="Calque_1" data-name="Calque 1" xmlns="http://www.w3.org/2000/svg" xmlns:xlink="http://www.w3.org/1999/xlink" viewBox="0 0 33.91 30.8"><defs><style>.cls-1{fill:url(#Dégradé_sans_nom_11);}.cls-2{fill:url(#Dégradé_sans_nom_11-2);}</style><linearGradient id="Dégradé_sans_nom_11" x1="1" y1="20.15" x2="34.91" y2="20.15" gradientUnits="userSpaceOnUse"><stop offset="0" stop-color="#00bae7"/><stop offset="1" stop-color="#8dc63f"/></linearGradient><linearGradient id="Dégradé_sans_nom_11-2" x1="11" y1="11.05" x2="25" y2="11.05" xlink:href="#Dégradé_sans_nom_11"/></defs><title>valeurs_humain</title><path class="cls-1" d="M3.4,4.8h0A2.37,2.37,0,0,0,1,7.2V17.8a2.27,2.27,0,0,0,.1.4,1.91,1.91,0,0,0,.3.8h0a0.35,0.35,0,0,1,.1.2l-0.1-.1L8.5,31.6v3.6h1V31.3L2.2,18.6h0A1.42,1.42,0,0,1,2,18.2H2V7.2A1.36,1.36,0,0,1,3.4,5.8h0a1.82,1.82,0,0,1,1.1.4,1.69,1.69,0,0,1,.3,1v7.6h1V7.2a2.27,2.27,0,0,0-.6-1.6A2.2,2.2,0,0,0,3.4,4.8ZM32.6,5a2.2,2.2,0,0,0-1.8.8,2.66,2.66,0,0,0-.6,1.6V15h1V7.4a1.69,1.69,0,0,1,.3-1A1.6,1.6,0,0,1,32.6,6h0A1.36,1.36,0,0,1,34,7.4h0V18a0.31,0.31,0,0,1-.1.2h0a0.76,0.76,0,0,1-.2.4L26.4,31.4v3.9h1V31.7l7.1-12.5-0.1.1a0.2,0.2,0,0,0,.1-0.2h0a1.91,1.91,0,0,0,.3-0.8,2.27,2.27,0,0,0,.1-0.4V7.3A2.2,2.2,0,0,0,32.6,5h0ZM6.4,16.2a1.14,1.14,0,0,0-.8.3,1.81,1.81,0,0,0-1,1.4A3.1,3.1,0,0,0,5.2,20l2.6,4.3,0.9-.5L6,19.5a3.25,3.25,0,0,1-.5-1.4,1,1,0,0,1,.6-0.7,1.56,1.56,0,0,1,1,0,2.1,2.1,0,0,1,1.1.8l1.3,2.2a5.84,5.84,0,0,0,1.3,1.4A6.79,6.79,0,0,1,12,23l2,3.2a6.1,6.1,0,0,1,.8,3.7v5.4h1V29.9a7.61,7.61,0,0,0-1-4.2l-2-3.3h0c-0.4-.5-0.9-0.9-1.3-1.4a4,4,0,0,1-1.1-1.2L9,17.6a2.49,2.49,0,0,0-1.7-1.2h0A2.92,2.92,0,0,0,6.4,16.2Zm23.2,0.2a2.77,2.77,0,0,0-.9.1h0A3.35,3.35,0,0,0,27,17.7L25.6,20a6,6,0,0,1-1.1,1.2,4.36,4.36,0,0,0-1.3,1.4h0l-2,3.3a7.43,7.43,0,0,0-1,4.2v5.4h1V30.1a6.4,6.4,0,0,1,.8-3.7h0l2-3.2A13.26,13.26,0,0,1,25.2,22a5.71,5.71,0,0,0,1.3-1.4l1.3-2.2a2.1,2.1,0,0,1,1.1-.8,3.28,3.28,0,0,1,1,0,1,1,0,0,1,.6.7,3.16,3.16,0,0,1-.5,1.5l-2.6,4.3,0.9,0.5,2.6-4.3a3.1,3.1,0,0,0,.6-2.1,2.07,2.07,0,0,0-1-1.4A1.8,1.8,0,0,0,29.6,16.4Z" transform="translate(-1 -4.7)"/><path class="cls-2" d="M18,17.4l5.6-5.7,0.3-.3A3.86,3.86,0,0,0,25,8.7a4,4,0,0,0-4-4A4.16,4.16,0,0,0,18,6a4,4,0,0,0-7,2.7,3.86,3.86,0,0,0,1.1,2.7ZM15,5.8a2.74,2.74,0,0,1,2.5,1.4L18,8l0.4-.7A2.9,2.9,0,0,1,21,5.8a3,3,0,0,1,3,3,2.79,2.79,0,0,1-.8,2L18,16l-5.1-5.1a0.1,0.1,0,0,0-.1-0.1,2.85,2.85,0,0,1-.8-2A3,3,0,0,1,15,5.8Z" transform="translate(-1 -4.7)"/></svg>
